<svg width="347" height="349" viewBox="0 0 347 349" fill="none" xmlns="http://www.w3.org/2000/svg">
<path d="M158.396 0.356689C126.262 4.22336 101.062 13.1567 76.2624 29.69C58.2624 41.5567 51.7291 51.0233 50.6624 67.0233C49.5958 83.1567 53.7291 95.4233 66.1291 114.223C71.5958 122.623 83.7291 135.69 112.396 164.89C148.262 201.157 151.596 204.89 154.262 212.09C157.596 221.023 158.262 235.69 155.729 245.023C151.596 260.357 138.929 277.557 128.396 282.357C120.796 285.823 110.529 285.69 104.929 281.823C95.3291 275.423 91.3291 265.157 91.4624 248.09C91.5958 226.757 102.929 205.157 118.529 195.957C120.662 194.623 122.396 193.29 122.396 192.89C122.396 192.49 99.5958 169.423 71.7291 141.557C13.8624 83.8233 20.5291 87.5566 12.3958 107.823C4.12911 128.623 0.929114 144.223 0.129113 167.69C-1.20422 207.69 7.72911 239.423 29.7291 272.89C37.9958 285.557 61.1958 308.757 74.6624 317.957C109.596 341.823 153.862 352.757 193.996 347.557C225.329 343.423 256.929 330.357 280.129 311.957C293.996 301.023 299.729 282.89 295.196 265.29C289.062 241.69 282.396 232.89 236.129 186.223C193.329 142.89 191.062 139.823 189.596 123.29C187.062 95.4233 208.529 63.69 230.129 63.5567C253.996 63.4233 263.862 99.8233 248.262 130.357C244.396 138.223 234.262 149.557 228.796 152.357C226.796 153.423 225.062 155.023 225.062 155.957C225.062 156.89 247.862 180.357 275.596 208.09L326.129 258.623L329.462 252.09C334.396 242.223 340.929 223.023 343.996 208.89C347.729 191.823 347.996 158.757 344.529 142.223C336.662 105.023 320.796 75.4233 295.196 49.9567C271.462 26.3567 238.662 9.15668 205.862 2.89001C194.929 0.756683 167.062 -0.709991 158.396 0.356689Z" fill="black"/>
</svg>
